<svg xmlns="http://www.w3.org/2000/svg" viewBox="0 0 50 50"><path d="M9.8125 2C9.335938 2.089844 8.992188 2.511719 9 3L9 18L4 18L4 43C4 45.757813 6.242188 48 9 48L41 48C43.757813 48 46 45.757813 46 43L46 18L41 18L41 3C41 2.449219 40.550781 2 40 2L10 2C9.96875 2 9.9375 2 9.90625 2C9.875 2 9.84375 2 9.8125 2 Z M 11 4L39 4L39 18L30.5 18C28.578125 18 27 19.578125 27 21.5C27 23.421875 28.578125 25 30.5 25L33 25C33.566406 25 34 25.433594 34 26C34 26.566406 33.566406 27 33 27L17 27C16.433594 27 16 26.566406 16 26C16 25.433594 16.433594 25 17 25L19.5 25C21.421875 25 23 23.421875 23 21.5C23 19.578125 21.421875 18 19.5 18L11 18 Z M 15.8125 8C15.261719 8.050781 14.855469 8.542969 14.90625 9.09375C14.957031 9.644531 15.449219 10.050781 16 10L34 10C34.359375 10.003906 34.695313 9.816406 34.878906 9.503906C35.058594 9.191406 35.058594 8.808594 34.878906 8.496094C34.695313 8.183594 34.359375 7.996094 34 8L16 8C15.96875 8 15.9375 8 15.90625 8C15.875 8 15.84375 8 15.8125 8 Z M 15.8125 12C15.261719 12.050781 14.855469 12.542969 14.90625 13.09375C14.957031 13.644531 15.449219 14.050781 16 14L29 14C29.359375 14.003906 29.695313 13.816406 29.878906 13.503906C30.058594 13.191406 30.058594 12.808594 29.878906 12.496094C29.695313 12.183594 29.359375 11.996094 29 12L16 12C15.96875 12 15.9375 12 15.90625 12C15.875 12 15.84375 12 15.8125 12 Z M 0 20L0 26L2 26L2 20 Z M 48 20L48 26L50 26L50 20 Z M 11 33C11.550781 33 12 33.449219 12 34C12 34.550781 11.550781 35 11 35C10.449219 35 10 34.550781 10 34C10 33.449219 10.449219 33 11 33 Z M 15 33C15.550781 33 16 33.449219 16 34C16 34.550781 15.550781 35 15 35C14.449219 35 14 34.550781 14 34C14 33.449219 14.449219 33 15 33 Z M 19 33C19.550781 33 20 33.449219 20 34C20 34.550781 19.550781 35 19 35C18.449219 35 18 34.550781 18 34C18 33.449219 18.449219 33 19 33 Z M 23 33C23.550781 33 24 33.449219 24 34C24 34.550781 23.550781 35 23 35C22.449219 35 22 34.550781 22 34C22 33.449219 22.449219 33 23 33 Z M 27 33C27.550781 33 28 33.449219 28 34C28 34.550781 27.550781 35 27 35C26.449219 35 26 34.550781 26 34C26 33.449219 26.449219 33 27 33 Z M 31 33C31.550781 33 32 33.449219 32 34C32 34.550781 31.550781 35 31 35C30.449219 35 30 34.550781 30 34C30 33.449219 30.449219 33 31 33 Z M 35 33C35.550781 33 36 33.449219 36 34C36 34.550781 35.550781 35 35 35C34.449219 35 34 34.550781 34 34C34 33.449219 34.449219 33 35 33 Z M 39 33C39.550781 33 40 33.449219 40 34C40 34.550781 39.550781 35 39 35C38.449219 35 38 34.550781 38 34C38 33.449219 38.449219 33 39 33 Z M 13 37C13.550781 37 14 37.449219 14 38C14 38.550781 13.550781 39 13 39C12.449219 39 12 38.550781 12 38C12 37.449219 12.449219 37 13 37 Z M 17 37C17.550781 37 18 37.449219 18 38C18 38.550781 17.550781 39 17 39C16.449219 39 16 38.550781 16 38C16 37.449219 16.449219 37 17 37 Z M 21 37C21.550781 37 22 37.449219 22 38C22 38.550781 21.550781 39 21 39C20.449219 39 20 38.550781 20 38C20 37.449219 20.449219 37 21 37 Z M 25 37C25.550781 37 26 37.449219 26 38C26 38.550781 25.550781 39 25 39C24.449219 39 24 38.550781 24 38C24 37.449219 24.449219 37 25 37 Z M 29 37C29.550781 37 30 37.449219 30 38C30 38.550781 29.550781 39 29 39C28.449219 39 28 38.550781 28 38C28 37.449219 28.449219 37 29 37 Z M 33 37C33.550781 37 34 37.449219 34 38C34 38.550781 33.550781 39 33 39C32.449219 39 32 38.550781 32 38C32 37.449219 32.449219 37 33 37 Z M 37 37C37.550781 37 38 37.449219 38 38C38 38.550781 37.550781 39 37 39C36.449219 39 36 38.550781 36 38C36 37.449219 36.449219 37 37 37 Z M 16 41L34 41C34.550781 41 35 41.449219 35 42C35 42.550781 34.550781 43 34 43L16 43C15.449219 43 15 42.550781 15 42C15 41.449219 15.449219 41 16 41Z"/></svg>